<svg width="32" height="32" viewBox="0 0 32 32" fill="none" xmlns="http://www.w3.org/2000/svg">
<g filter="url(#filter0_d_929_22108)">
<circle cx="14" cy="14" r="12" fill="#FFD704" fill-opacity="0.25" shape-rendering="crispEdges"/>
</g>
<path fill-rule="evenodd" clip-rule="evenodd" d="M17.9248 10.0759L15.839 13.6885C15.5074 14.2629 14.826 14.5096 14.2191 14.3148C14.1693 14.4624 14.1043 14.6073 14.0234 14.7474L13.7561 15.2104C14.839 15.6448 16.1047 15.2284 16.7051 14.1885L18.7908 10.5759C19.449 9.43582 19.0584 7.97799 17.9183 7.31975C16.7782 6.66152 15.3204 7.05214 14.6621 8.19224L12.8438 11.3418C12.9481 11.3836 13.0507 11.4333 13.1509 11.4912C13.349 11.6055 13.5244 11.744 13.6757 11.9008L15.5281 8.69224C15.9102 8.03043 16.7565 7.80368 17.4183 8.18578C18.0801 8.56787 18.3068 9.41411 17.9248 10.0759Z" fill="#6595F4"/>
<path fill-rule="evenodd" clip-rule="evenodd" d="M10.1866 17.9876L12.2723 14.375C12.604 13.8005 13.2853 13.5539 13.8922 13.7487C13.942 13.6011 14.007 13.4562 14.0879 13.3161L14.3553 12.8531C13.2723 12.4187 12.0067 12.8351 11.4063 13.875L9.32055 17.4876C8.66232 18.6277 9.05294 20.0855 10.193 20.7437C11.3331 21.402 12.791 21.0113 13.4492 19.8712L15.2676 16.7217C15.1632 16.6799 15.0606 16.6301 14.9604 16.5723C14.7623 16.4579 14.5869 16.3195 14.4356 16.1627L12.5832 19.3712C12.2011 20.033 11.3548 20.2598 10.693 19.8777C10.0312 19.4956 9.80449 18.6494 10.1866 17.9876Z" fill="#6595F4"/>
<defs>
<filter id="filter0_d_929_22108" x="0" y="0" width="32" height="32" filterUnits="userSpaceOnUse" color-interpolation-filters="sRGB">
<feFlood flood-opacity="0" result="BackgroundImageFix"/>
<feColorMatrix in="SourceAlpha" type="matrix" values="0 0 0 0 0 0 0 0 0 0 0 0 0 0 0 0 0 0 127 0" result="hardAlpha"/>
<feOffset dx="2" dy="2"/>
<feGaussianBlur stdDeviation="2"/>
<feComposite in2="hardAlpha" operator="out"/>
<feColorMatrix type="matrix" values="0 0 0 0 1 0 0 0 0 0.842667 0 0 0 0 0.0166667 0 0 0 0.2 0"/>
<feBlend mode="normal" in2="BackgroundImageFix" result="effect1_dropShadow_929_22108"/>
<feBlend mode="normal" in="SourceGraphic" in2="effect1_dropShadow_929_22108" result="shape"/>
</filter>
</defs>
</svg>
