<svg width="20" height="20" viewBox="0 0 20 20" fill="none" xmlns="http://www.w3.org/2000/svg">
<mask id="path-1-inside-1_929_22022" fill="white">
<path fill-rule="evenodd" clip-rule="evenodd" d="M19.7969 9.75195C19.7969 15.1378 15.4308 19.5039 10.0449 19.5039C8.03644 19.5039 6.1698 18.8967 4.6185 17.8559L0 20L2.14922 15.4767C0.981574 13.869 0.292947 11.8909 0.292947 9.75195C0.292947 4.3661 4.65904 0 10.0449 0C15.4308 0 19.7969 4.3661 19.7969 9.75195ZM9.71466 4.87812C9.80447 4.60172 10.1955 4.60172 10.2853 4.87812L11.2797 7.9386C11.3199 8.06221 11.4351 8.1459 11.565 8.1459H14.783C15.0736 8.1459 15.1945 8.51778 14.9593 8.6886L12.3559 10.5801C12.2508 10.6565 12.2068 10.7919 12.247 10.9155L13.2414 13.976C13.3312 14.2524 13.0148 14.4822 12.7797 14.3114L10.1763 12.4199C10.0712 12.3435 9.92879 12.3435 9.82364 12.4199L7.22024 14.3114C6.98512 14.4822 6.66878 14.2524 6.75858 13.976L7.753 10.9155C7.79316 10.7919 7.74916 10.6565 7.64401 10.5801L5.04061 8.6886C4.80549 8.51778 4.92633 8.1459 5.21694 8.1459H8.43493C8.5649 8.1459 8.68009 8.06221 8.72025 7.9386L9.71466 4.87812Z"/>
</mask>
<path d="M4.6185 17.8559L5.17565 17.0255L4.70811 16.7118L4.19743 16.9489L4.6185 17.8559ZM0 20L-0.903228 19.5708L-2.09256 22.0739L0.421072 20.907L0 20ZM2.14922 15.4767L3.05245 15.9058L3.30729 15.3695L2.95833 14.889L2.14922 15.4767ZM10.2853 4.87812L11.2364 4.5691L11.2364 4.5691L10.2853 4.87812ZM9.71466 4.87812L8.7636 4.5691L8.7636 4.5691L9.71466 4.87812ZM11.2797 7.9386L12.2308 7.62959L12.2308 7.62959L11.2797 7.9386ZM14.9593 8.6886L15.5471 9.49762L15.5471 9.49762L14.9593 8.6886ZM12.3559 10.5801L12.9437 11.3891L12.9437 11.3891L12.3559 10.5801ZM12.247 10.9155L11.2959 11.2245L11.2959 11.2245L12.247 10.9155ZM13.2414 13.976L12.2903 14.285L12.2903 14.285L13.2414 13.976ZM12.7797 14.3114L12.1919 15.1204L12.1919 15.1204L12.7797 14.3114ZM10.1763 12.4199L10.7641 11.6109L10.7641 11.6109L10.1763 12.4199ZM9.82364 12.4199L9.23586 11.6109L9.23586 11.6109L9.82364 12.4199ZM7.22024 14.3114L7.80802 15.1204L7.80802 15.1204L7.22024 14.3114ZM6.75858 13.976L7.70964 14.285L7.70964 14.285L6.75858 13.976ZM7.753 10.9155L6.80194 10.6065L6.80194 10.6065L7.753 10.9155ZM7.64401 10.5801L7.05623 11.3891L7.05623 11.3891L7.64401 10.5801ZM5.04061 8.6886L4.45282 9.49762L4.45282 9.49762L5.04061 8.6886ZM8.72025 7.9386L7.76919 7.62959L7.76919 7.62959L8.72025 7.9386ZM10.0449 20.5039C15.983 20.5039 20.7969 15.6901 20.7969 9.75195H18.7969C18.7969 14.5855 14.8785 18.5039 10.0449 18.5039V20.5039ZM4.06136 18.6864C5.77228 19.8342 7.8319 20.5039 10.0449 20.5039V18.5039C8.24098 18.5039 6.56732 17.9592 5.17565 17.0255L4.06136 18.6864ZM4.19743 16.9489L-0.421072 19.093L0.421072 20.907L5.03957 18.763L4.19743 16.9489ZM0.903228 20.4292L3.05245 15.9058L1.24599 15.0475L-0.903228 19.5708L0.903228 20.4292ZM-0.707053 9.75195C-0.707053 12.109 0.0525586 14.2916 1.34011 16.0643L2.95833 14.889C1.91059 13.4464 1.29295 11.6728 1.29295 9.75195H-0.707053ZM10.0449 -1C4.10676 -1 -0.707053 3.81381 -0.707053 9.75195H1.29295C1.29295 4.91838 5.21133 1 10.0449 1V-1ZM20.7969 9.75195C20.7969 3.81381 15.983 -1 10.0449 -1V1C14.8785 1 18.7969 4.91838 18.7969 9.75195H20.7969ZM11.2364 4.5691C10.8472 3.37139 9.15276 3.37139 8.7636 4.5691L10.6657 5.18713C10.4562 5.83205 9.54379 5.83205 9.33424 5.18713L11.2364 4.5691ZM12.2308 7.62959L11.2364 4.5691L9.33424 5.18713L10.3287 8.24762L12.2308 7.62959ZM11.565 7.1459C11.8683 7.1459 12.1371 7.34117 12.2308 7.62959L10.3287 8.24762C10.5027 8.78325 11.0018 9.1459 11.565 9.1459V7.1459ZM14.783 7.1459H11.565V9.1459H14.783V7.1459ZM15.5471 9.49762C16.566 8.75739 16.0423 7.1459 14.783 7.1459V9.1459C14.1049 9.1459 13.823 8.27817 14.3716 7.87959L15.5471 9.49762ZM12.9437 11.3891L15.5471 9.49762L14.3716 7.87959L11.7682 9.77107L12.9437 11.3891ZM13.198 10.6065C13.2917 10.8949 13.1891 11.2109 12.9437 11.3891L11.7682 9.77107C11.3125 10.1021 11.1219 10.6889 11.2959 11.2245L13.198 10.6065ZM14.1924 13.667L13.198 10.6065L11.2959 11.2245L12.2903 14.285L14.1924 13.667ZM12.1919 15.1204C13.2108 15.8606 14.5816 14.8647 14.1924 13.667L12.2903 14.285C12.0808 13.6401 12.8189 13.1038 13.3675 13.5024L12.1919 15.1204ZM9.58853 13.2289L12.1919 15.1204L13.3675 13.5024L10.7641 11.6109L9.58853 13.2289ZM10.4114 13.2289C10.1661 13.4072 9.83387 13.4072 9.58853 13.2289L10.7641 11.6109C10.3085 11.2799 9.69149 11.2799 9.23586 11.6109L10.4114 13.2289ZM7.80802 15.1204L10.4114 13.2289L9.23586 11.6109L6.63245 13.5024L7.80802 15.1204ZM5.80753 13.667C5.41837 14.8647 6.7892 15.8606 7.80802 15.1204L6.63245 13.5024C7.18105 13.1038 7.91919 13.6401 7.70964 14.285L5.80753 13.667ZM6.80194 10.6065L5.80753 13.667L7.70964 14.285L8.70405 11.2245L6.80194 10.6065ZM7.05623 11.3891C6.81089 11.2109 6.70823 10.8949 6.80194 10.6065L8.70405 11.2245C8.87809 10.6889 8.68743 10.1021 8.2318 9.77107L7.05623 11.3891ZM4.45282 9.49762L7.05623 11.3891L8.2318 9.77107L5.62839 7.87959L4.45282 9.49762ZM5.21694 7.1459C3.9576 7.1459 3.434 8.7574 4.45282 9.49762L5.6284 7.87959C6.17699 8.27816 5.89506 9.1459 5.21694 9.1459V7.1459ZM8.43493 7.1459H5.21694V9.1459H8.43493V7.1459ZM7.76919 7.62959C7.8629 7.34117 8.13168 7.1459 8.43493 7.1459V9.1459C8.99812 9.1459 9.49727 8.78325 9.67131 8.24762L7.76919 7.62959ZM8.7636 4.5691L7.76919 7.62959L9.6713 8.24762L10.6657 5.18713L8.7636 4.5691Z" fill="black" mask="url(#path-1-inside-1_929_22022)"/>
</svg>
