<svg width="18" height="18" viewBox="0 0 18 18" fill="none" xmlns="http://www.w3.org/2000/svg">
<circle cx="9" cy="9" r="8" fill="#6595F4"/>
<path d="M7.8 11.9L7.31191 12.4694C7.60298 12.7189 8.03534 12.7088 8.31435 12.4458L7.8 11.9ZM13.5144 7.54584C13.8158 7.26177 13.8299 6.78711 13.5458 6.48565C13.2618 6.18419 12.7871 6.17009 12.4856 6.45416L13.5144 7.54584ZM5.48809 8.93056C5.1736 8.66099 4.70012 8.69741 4.43056 9.01191C4.16099 9.3264 4.19741 9.79988 4.51191 10.0694L5.48809 8.93056ZM8.31435 12.4458L13.5144 7.54584L12.4856 6.45416L7.28565 11.3542L8.31435 12.4458ZM8.28809 11.3306L5.48809 8.93056L4.51191 10.0694L7.31191 12.4694L8.28809 11.3306Z" fill="white"/>
</svg>
