<svg width="24" height="24" viewBox="0 0 24 24" fill="none" xmlns="http://www.w3.org/2000/svg">
<path fill-rule="evenodd" clip-rule="evenodd" d="M15.9248 8.07592L13.839 11.6885C13.5074 12.2629 12.826 12.5096 12.2191 12.3148C12.1693 12.4624 12.1043 12.6073 12.0234 12.7474L11.7561 13.2104C12.839 13.6448 14.1047 13.2284 14.7051 12.1885L16.7908 8.57592C17.449 7.43582 17.0584 5.97799 15.9183 5.31975C14.7782 4.66152 13.3204 5.05214 12.6621 6.19224L10.8438 9.34175C10.9481 9.3836 11.0507 9.43334 11.1509 9.49119C11.349 9.60554 11.5244 9.74403 11.6757 9.90078L13.5281 6.69224C13.9102 6.03043 14.7565 5.80368 15.4183 6.18578C16.0801 6.56787 16.3068 7.41411 15.9248 8.07592Z" fill="black"/>
<path fill-rule="evenodd" clip-rule="evenodd" d="M8.18658 15.9876L10.2723 12.375C10.604 11.8005 11.2853 11.5539 11.8922 11.7487C11.942 11.6011 12.007 11.4562 12.0879 11.3161L12.3553 10.8531C11.2723 10.4187 10.0067 10.8351 9.40627 11.875L7.32055 15.4876C6.66232 16.6277 7.05294 18.0855 8.19304 18.7437C9.33314 19.402 10.791 19.0113 11.4492 17.8712L13.2676 14.7217C13.1632 14.6799 13.0606 14.6301 12.9604 14.5723C12.7623 14.4579 12.5869 14.3195 12.4356 14.1627L10.5832 17.3712C10.2011 18.033 9.35484 18.2598 8.69304 17.8777C8.03124 17.4956 7.80449 16.6494 8.18658 15.9876Z" fill="black"/>
</svg>
