<svg width="24" height="24" viewBox="0 0 24 24" fill="none" xmlns="http://www.w3.org/2000/svg">
<path d="M17.5 9.5C18.6046 9.5 19.5 8.60457 19.5 7.5C19.5 6.39543 18.6046 5.5 17.5 5.5C16.3954 5.5 15.5 6.39543 15.5 7.5C15.5 8.60457 16.3954 9.5 17.5 9.5Z" stroke="#2C343F" stroke-miterlimit="10"/>
<path d="M7 18.5C8.10457 18.5 9 17.6046 9 16.5C9 15.3954 8.10457 14.5 7 14.5C5.89543 14.5 5 15.3954 5 16.5C5 17.6046 5.89543 18.5 7 18.5Z" stroke="#2C343F" stroke-miterlimit="10"/>
<path d="M1 7.5H15.5" stroke="#2C343F" stroke-miterlimit="10"/>
<path d="M1 16.5H5" stroke="#2C343F" stroke-miterlimit="10"/>
<path d="M9 16.5H23" stroke="#2C343F" stroke-miterlimit="10"/>
<path d="M19 7.5H23" stroke="#2C343F" stroke-miterlimit="10"/>
</svg>
