<svg width="19" height="19" viewBox="0 0 19 19" fill="none" xmlns="http://www.w3.org/2000/svg">
<mask id="path-1-inside-1_929_22017" fill="white">
<path fill-rule="evenodd" clip-rule="evenodd" d="M9.03117 15.6527C12.8013 15.6527 15.8575 12.5965 15.8575 8.82637C15.8575 5.05627 12.8013 2 9.03117 2C5.26107 2 2.2048 5.05627 2.2048 8.82637C2.2048 10.3236 2.68684 11.7083 3.50421 12.8337L2 15.9995L5.23235 14.4989C6.31832 15.2276 7.6251 15.6527 9.03117 15.6527Z"/>
</mask>
<path d="M3.50421 12.8337L4.40743 13.2629L4.66228 12.7265L4.31331 12.246L3.50421 12.8337ZM2 15.9995L1.09677 15.5703L-0.0925556 18.0734L2.42107 16.9065L2 15.9995ZM5.23235 14.4989L5.78954 13.6685L5.32199 13.3548L4.81128 13.5919L5.23235 14.4989ZM14.8575 8.82637C14.8575 12.0442 12.249 14.6527 9.03117 14.6527V16.6527C13.3535 16.6527 16.8575 13.1488 16.8575 8.82637H14.8575ZM9.03117 3C12.249 3 14.8575 5.60855 14.8575 8.82637H16.8575C16.8575 4.50398 13.3535 1 9.03117 1V3ZM3.2048 8.82637C3.2048 5.60855 5.81335 3 9.03117 3V1C4.70878 1 1.2048 4.50398 1.2048 8.82637H3.2048ZM4.31331 12.246C3.61586 11.2858 3.2048 10.1055 3.2048 8.82637H1.2048C1.2048 10.5417 1.75783 12.1309 2.6951 13.4214L4.31331 12.246ZM2.90323 16.4287L4.40743 13.2629L2.60098 12.4045L1.09677 15.5703L2.90323 16.4287ZM4.81128 13.5919L1.57893 15.0925L2.42107 16.9065L5.65342 15.406L4.81128 13.5919ZM9.03117 14.6527C7.82966 14.6527 6.71588 14.2901 5.78954 13.6685L4.67516 15.3293C5.92076 16.1651 7.42054 16.6527 9.03117 16.6527V14.6527Z" fill="#2C343F" mask="url(#path-1-inside-1_929_22017)"/>
<path d="M8.71546 5.67792C8.80527 5.40153 9.19629 5.40153 9.2861 5.67792L9.87639 7.49464C9.91655 7.61824 10.0317 7.70193 10.1617 7.70193H12.0719C12.3625 7.70193 12.4834 8.07382 12.2482 8.24464L10.7029 9.36743C10.5977 9.44383 10.5537 9.57924 10.5939 9.70284L11.1842 11.5196C11.274 11.796 10.9576 12.0258 10.7225 11.855L9.17712 10.7322C9.07197 10.6558 8.92959 10.6558 8.82445 10.7322L7.27905 11.855C7.04394 12.0258 6.72759 11.796 6.8174 11.5196L7.40769 9.70284C7.44785 9.57924 7.40385 9.44383 7.29871 9.36743L5.75331 8.24464C5.5182 8.07382 5.63903 7.70193 5.92965 7.70193H7.83986C7.96983 7.70193 8.08501 7.61825 8.12518 7.49464L8.71546 5.67792Z" fill="#2C343F"/>
</svg>
