<svg width="50" height="10" viewBox="0 0 50 10" fill="none" xmlns="http://www.w3.org/2000/svg">
<path d="M4.86064 0L6.36204 3.21176L9.72128 3.72794L7.29096 6.21706L7.86344 9.75L4.86064 8.08677L1.85785 9.75L2.43032 6.21706L0 3.72794L3.35924 3.21176L4.86064 0Z" fill="#949BAD"/>
<path d="M14.8606 0L16.362 3.21176L19.7213 3.72794L17.291 6.21706L17.8634 9.75L14.8606 8.08677L11.8578 9.75L12.4303 6.21706L10 3.72794L13.3592 3.21176L14.8606 0Z" fill="#949BAD"/>
<path d="M24.8606 0L26.362 3.21176L29.7213 3.72794L27.291 6.21706L27.8634 9.75L24.8606 8.08677L21.8578 9.75L22.4303 6.21706L20 3.72794L23.3592 3.21176L24.8606 0Z" fill="#949BAD"/>
<path d="M34.8606 0L36.362 3.21176L39.7213 3.72794L37.291 6.21706L37.8634 9.75L34.8606 8.08677L31.8578 9.75L32.4303 6.21706L30 3.72794L33.3592 3.21176L34.8606 0Z" fill="#949BAD"/>
<path d="M44.8606 0L46.362 3.21176L49.7213 3.72794L47.291 6.21706L47.8634 9.75L44.8606 8.08677L41.8578 9.75L42.4303 6.21706L40 3.72794L43.3592 3.21176L44.8606 0Z" fill="#949BAD"/>
</svg>
