<svg width="134" height="26" viewBox="0 0 134 26" fill="none" xmlns="http://www.w3.org/2000/svg">
<path d="M12.75 0L16.6883 8.42481L25.5 9.7788L19.125 16.308L20.6267 25.5753L12.75 21.2125L4.87333 25.5753L6.375 16.308L0 9.7788L8.81167 8.42481L12.75 0Z" fill="#949BAD"/>
<path d="M39.75 0L43.6883 8.42481L52.5 9.7788L46.125 16.308L47.6267 25.5753L39.75 21.2125L31.8733 25.5753L33.375 16.308L27 9.7788L35.8117 8.42481L39.75 0Z" fill="#949BAD"/>
<path d="M66.75 0L70.6883 8.42481L79.5 9.7788L73.125 16.308L74.6267 25.5753L66.75 21.2125L58.8733 25.5753L60.375 16.308L54 9.7788L62.8117 8.42481L66.75 0Z" fill="#949BAD"/>
<path d="M93.75 0L97.6883 8.42481L106.5 9.7788L100.125 16.308L101.627 25.5753L93.75 21.2125L85.8733 25.5753L87.375 16.308L81 9.7788L89.8117 8.42481L93.75 0Z" fill="#949BAD"/>
<path d="M120.75 0L124.688 8.42481L133.5 9.7788L127.125 16.308L128.627 25.5753L120.75 21.2125L112.873 25.5753L114.375 16.308L108 9.7788L116.812 8.42481L120.75 0Z" fill="#949BAD"/>
</svg>
