<svg width="10" height="13" viewBox="0 0 10 13" fill="none" xmlns="http://www.w3.org/2000/svg">
<path fill-rule="evenodd" clip-rule="evenodd" d="M4.66624 1.00035C3.73332 1.00035 2.8974 1.41564 2.33326 2.07145C2.38691 1.9744 2.44764 1.8778 2.51612 1.78363C2.91075 1.24092 3.5678 0.769039 4.66605 0.769039C5.7834 0.769039 6.45044 1.193 6.84995 1.69949C7.01913 1.91397 7.14447 2.14883 7.23415 2.38221C6.68368 1.54958 5.7391 1.00035 4.66624 1.00035ZM8.12673 4.84554C7.95961 4.84554 7.80495 4.79224 7.67881 4.70171C7.38995 6.10085 6.15093 7.15266 4.66624 7.15266C3.18146 7.15266 1.94238 6.10073 1.65361 4.70148C1.52741 4.79215 1.37263 4.84554 1.20538 4.84554C0.78065 4.84554 0.436339 4.50123 0.436339 4.07651V3.30747C0.436339 2.88274 0.78065 2.53843 1.20538 2.53843C1.24372 2.53843 1.2814 2.54123 1.31824 2.54665C1.4218 2.16307 1.60397 1.73037 1.89414 1.33134C2.42235 0.60495 3.30338 0 4.66605 0C6.00963 0 6.90278 0.5247 7.45376 1.22322C7.78251 1.64001 7.98091 2.1073 8.08832 2.53937C8.10104 2.53874 8.11385 2.53843 8.12673 2.53843C8.55145 2.53843 8.89576 2.88274 8.89576 3.30747V4.07651C8.89576 4.50123 8.55145 4.84554 8.12673 4.84554ZM0.0519901 12.3008C-0.164919 10.7824 0.205497 7.97928 2.93369 7.15273C3.42708 7.48958 4.02356 7.68655 4.66605 7.68655C5.30859 7.68655 5.90511 7.48955 6.39852 7.15266C9.12693 7.97912 9.49737 10.7824 9.28045 12.3008H0.0519901Z" fill="#2C343F"/>
</svg>
