<svg width="24" height="24" viewBox="0 0 24 24" fill="none" xmlns="http://www.w3.org/2000/svg">
<path fill-rule="evenodd" clip-rule="evenodd" d="M12.001 5C10.7882 5 9.70157 5.53969 8.96802 6.39199C9.03768 6.26607 9.1165 6.14072 9.20536 6.01851C9.71852 5.31282 10.5729 4.69922 12.001 4.69922C13.4539 4.69922 14.3213 5.25051 14.8407 5.90911C15.0609 6.18827 15.224 6.49397 15.3407 6.79773C14.625 5.71456 13.3964 5 12.001 5ZM16.501 10C16.2836 10 16.0824 9.93063 15.9183 9.81282C15.5428 11.6322 13.9316 13 12.001 13C10.0703 13 8.45917 11.6322 8.08362 9.81282C7.91956 9.93063 7.71837 10 7.50098 10C6.94869 10 6.50098 9.55228 6.50098 9V8C6.50098 7.44772 6.94869 7 7.50098 7C7.55083 7 7.59983 7.00365 7.64773 7.01069C7.7824 6.51192 8.01928 5.94927 8.39659 5.4304C9.08343 4.48585 10.2291 3.69922 12.001 3.69922C13.7481 3.69922 14.9094 4.3815 15.6259 5.2898C16.0534 5.83176 16.3114 6.43939 16.451 7.00123C16.4676 7.00042 16.4842 7 16.501 7C17.0533 7 17.501 7.44772 17.501 8V9C17.501 9.55228 17.0533 10 16.501 10ZM6.0012 19.6942C5.71915 17.7199 6.20081 14.0749 9.74834 13.0001C10.3899 13.4381 11.1655 13.6942 12.001 13.6942C12.8365 13.6942 13.6122 13.4381 14.2537 13C17.8016 14.0747 18.2833 17.7198 18.0012 19.6942H6.0012Z" fill="#6595F4"/>
</svg>
