<svg width="24" height="24" viewBox="0 0 24 24" fill="none" xmlns="http://www.w3.org/2000/svg">
<mask id="path-1-inside-1_929_21980" fill="white">
<path fill-rule="evenodd" clip-rule="evenodd" d="M21.7971 11.752C21.7971 17.1378 17.431 21.5039 12.0451 21.5039C10.0365 21.5039 8.1697 20.8966 6.61832 19.8557L2 21.9997L4.14921 17.4764C2.9817 15.8688 2.29316 13.8908 2.29316 11.752C2.29316 6.3661 6.65926 2 12.0451 2C17.431 2 21.7971 6.3661 21.7971 11.752ZM12.0762 13C12.6284 13 13.0762 12.5523 13.0762 12C13.0762 11.4477 12.6284 11 12.0762 11C11.5239 11 11.0762 11.4477 11.0762 12C11.0762 12.5523 11.5239 13 12.0762 13ZM7.2 13.0004C7.75228 13.0004 8.2 12.5527 8.2 12.0004C8.2 11.4481 7.75228 11.0004 7.2 11.0004C6.64772 11.0004 6.2 11.4481 6.2 12.0004C6.2 12.5527 6.64772 13.0004 7.2 13.0004ZM17.9529 12C17.9529 12.5523 17.5052 13 16.9529 13C16.4006 13 15.9529 12.5523 15.9529 12C15.9529 11.4477 16.4006 11 16.9529 11C17.5052 11 17.9529 11.4477 17.9529 12Z"/>
</mask>
<path d="M6.61832 19.8557L7.17551 19.0253L6.70796 18.7116L6.19725 18.9487L6.61832 19.8557ZM2 21.9997L1.09677 21.5705L-0.0925558 24.0736L2.42107 22.9067L2 21.9997ZM4.14921 17.4764L5.05244 17.9055L5.30727 17.3692L4.95834 16.8887L4.14921 17.4764ZM12.0451 22.5039C17.9833 22.5039 22.7971 17.6901 22.7971 11.752H20.7971C20.7971 16.5855 16.8787 20.5039 12.0451 20.5039V22.5039ZM6.06114 20.6861C7.77214 21.8341 9.83193 22.5039 12.0451 22.5039V20.5039C10.241 20.5039 8.56725 19.9591 7.17551 19.0253L6.06114 20.6861ZM2.42107 22.9067L7.0394 20.7627L6.19725 18.9487L1.57893 21.0926L2.42107 22.9067ZM3.24598 17.0472L1.09677 21.5705L2.90323 22.4288L5.05244 17.9055L3.24598 17.0472ZM1.29316 11.752C1.29316 14.1089 2.05267 16.2913 3.34007 18.064L4.95834 16.8887C3.91072 15.4462 3.29316 13.6727 3.29316 11.752H1.29316ZM12.0451 1C6.10697 1 1.29316 5.81381 1.29316 11.752H3.29316C3.29316 6.91838 7.21154 3 12.0451 3V1ZM22.7971 11.752C22.7971 5.81381 17.9833 1 12.0451 1V3C16.8787 3 20.7971 6.91838 20.7971 11.752H22.7971ZM12.0762 12V14C13.1807 14 14.0762 13.1046 14.0762 12H12.0762ZM12.0762 12H14.0762C14.0762 10.8954 13.1807 10 12.0762 10V12ZM12.0762 12V10C10.9716 10 10.0762 10.8954 10.0762 12H12.0762ZM12.0762 12H10.0762C10.0762 13.1046 10.9716 14 12.0762 14V12ZM7.2 12.0004V14.0004C8.30457 14.0004 9.2 13.1049 9.2 12.0004H7.2ZM7.2 12.0004H9.2C9.2 10.8958 8.30457 10.0004 7.2 10.0004V12.0004ZM7.2 12.0004V10.0004C6.09543 10.0004 5.2 10.8958 5.2 12.0004H7.2ZM7.2 12.0004H5.2C5.2 13.1049 6.09543 14.0004 7.2 14.0004V12.0004ZM16.9529 14C18.0574 14 18.9529 13.1046 18.9529 12H16.9529V14ZM14.9529 12C14.9529 13.1046 15.8483 14 16.9529 14V12H14.9529ZM16.9529 10C15.8483 10 14.9529 10.8954 14.9529 12H16.9529V10ZM18.9529 12C18.9529 10.8954 18.0574 10 16.9529 10V12H18.9529Z" fill="black" mask="url(#path-1-inside-1_929_21980)"/>
</svg>
