<svg width="19" height="19" viewBox="0 0 19 19" fill="none" xmlns="http://www.w3.org/2000/svg">
<path fill-rule="evenodd" clip-rule="evenodd" d="M15.8584 8.82652C15.8584 12.5967 12.8021 15.653 9.03191 15.653C7.62577 15.653 6.31892 15.2279 5.23289 14.4991L2 15.9999L3.50451 12.8335C2.68733 11.7082 2.20539 10.3236 2.20539 8.82652C2.20539 5.05634 5.26173 2 9.03191 2C12.8021 2 15.8584 5.05634 15.8584 8.82652ZM5.70117 9.7998C6.25346 9.7998 6.70117 9.35209 6.70117 8.7998C6.70117 8.24752 6.25346 7.7998 5.70117 7.7998C5.14889 7.7998 4.70117 8.24752 4.70117 8.7998C4.70117 9.35209 5.14889 9.7998 5.70117 9.7998ZM10.1143 8.7998C10.1143 9.35209 9.66654 9.7998 9.11426 9.7998C8.56197 9.7998 8.11426 9.35209 8.11426 8.7998C8.11426 8.24752 8.56197 7.7998 9.11426 7.7998C9.66654 7.7998 10.1143 8.24752 10.1143 8.7998ZM12.5283 9.7998C13.0806 9.7998 13.5283 9.35209 13.5283 8.7998C13.5283 8.24752 13.0806 7.7998 12.5283 7.7998C11.976 7.7998 11.5283 8.24752 11.5283 8.7998C11.5283 9.35209 11.976 9.7998 12.5283 9.7998Z" fill="white"/>
</svg>
