<svg width="3.75rem" height="3.75rem" viewBox="0 0 60 60" fill="none" xmlns="http://www.w3.org/2000/svg">
<path d="M57.0005 13.8975L29.4336 38.7068L18.4082 27.6804" stroke="#6595F4" stroke-width="4" stroke-linecap="round" stroke-linejoin="round"/>
<path fill-rule="evenodd" clip-rule="evenodd" d="M50.1125 28.1013C51.401 39.5215 43.1877 49.824 31.7675 51.1125C20.3473 52.401 10.0448 44.1876 8.7563 32.7674C7.46779 21.3472 15.6811 11.0448 27.1014 9.75625C33.693 9.01253 39.9123 11.4344 44.2408 15.8113C44.9195 16.4976 45.9674 16.7046 46.8156 16.244V16.244C47.9235 15.6424 48.2253 14.1831 47.3526 13.2732C42.1827 7.88315 34.6475 4.87946 26.6529 5.78147C13.0375 7.31766 3.24533 19.6005 4.78152 33.2159C6.31771 46.8313 18.6005 56.6234 32.2159 55.0873C45.8313 53.5511 55.6235 41.2683 54.0873 27.6528C54.0442 27.2709 53.9927 26.892 53.9329 26.5162C53.7247 25.2084 52.2734 24.5845 51.1096 25.2165V25.2165C50.3083 25.6517 49.9015 26.5631 50.0311 27.4657C50.0613 27.6764 50.0885 27.8883 50.1125 28.1013Z" fill="#6595F4"/>
</svg>
