<svg width="4.625rem" height="1.5rem" viewBox="0 0 74 24" fill="none" xmlns="http://www.w3.org/2000/svg">
<rect width="74" height="1.5rem" fill="#434A58"/>
<path d="M20.7716 12.56H19.4816C19.8016 11.08 19.8016 10.03 19.8016 9.09V8.26H13.6116V9.1H18.8016C18.8016 9.46 18.8016 9.82 18.7816 10.22L13.3316 10.41L13.4516 11.28L18.7216 11.02C18.6816 11.49 18.5916 11.99 18.4616 12.56H12.6116V13.41H16.1716V16.77H17.2116V13.41H20.7716V12.56ZM23.8708 14.08H22.8308V16.6H29.0608V15.76H23.8708V14.08ZM24.8408 8.95H26.9208V10.76H24.8408V8.95ZM26.4008 12.55V11.59H29.1708V10.76H27.9508V8.95H29.2208V8.12H22.5308V8.95H23.8108V10.76H22.5808V11.59H25.3608V12.55H21.7908V13.39H29.9808V12.55H26.4008ZM34.56 11.68H32.35V10.33H34.56V11.68ZM35.58 8.24H34.56V9.52H32.35V8.24H31.32V12.5H35.58V8.24ZM33.34 14.29H38.12V13.47H32.31V16.65H38.29V15.83H33.34V14.29ZM38.06 9.86V7.74H37.03V13.02H38.06V10.71H39.34V9.86H38.06ZM40.7192 8.69V9.53H43.9392C43.7592 11.61 42.6392 13.2 40.2692 14.34L40.8192 15.16C43.9192 13.66 44.9992 11.38 44.9992 8.69H40.7192ZM46.6292 7.74V16.77H47.6592V7.74H46.6292Z" fill="white"/>
<path d="M54 16.5L62 16.5" stroke="white" stroke-linecap="square" stroke-linejoin="round"/>
<path d="M55 12.1665L58 14.4998L61 12.1665" stroke="white" stroke-linecap="square" stroke-linejoin="bevel"/>
<path d="M58 13.7222V7.5" stroke="white" stroke-linecap="square"/>
</svg>
