<svg width="1.1875rem" height="1.1875rem" viewBox="0 0 19 19" fill="none" xmlns="http://www.w3.org/2000/svg">
<mask id="path-1-inside-1_929_21999" fill="white">
<path fill-rule="evenodd" clip-rule="evenodd" d="M9.03191 15.653C12.8021 15.653 15.8584 12.5967 15.8584 8.82652C15.8584 5.05634 12.8021 2 9.03191 2C5.26173 2 2.20539 5.05634 2.20539 8.82652C2.20539 10.3236 2.68733 11.7082 3.50451 12.8335L2 15.9999L5.23289 14.4991C6.31892 15.2279 7.62577 15.653 9.03191 15.653Z"/>
</mask>
<path d="M3.50451 12.8335L4.40774 13.2627L4.66256 12.7264L4.31367 12.2459L3.50451 12.8335ZM2 15.9999L1.09677 15.5708L-0.0925558 18.0739L2.42107 16.907L2 15.9999ZM5.23289 14.4991L5.79011 13.6688L5.32255 13.355L4.81182 13.5921L5.23289 14.4991ZM14.8584 8.82652C14.8584 12.0444 12.2498 14.653 9.03191 14.653V16.653C13.3544 16.653 16.8584 13.149 16.8584 8.82652H14.8584ZM9.03191 3C12.2498 3 14.8584 5.60862 14.8584 8.82652H16.8584C16.8584 4.50405 13.3544 1 9.03191 1V3ZM3.20539 8.82652C3.20539 5.60862 5.81402 3 9.03191 3V1C4.70945 1 1.20539 4.50405 1.20539 8.82652H3.20539ZM4.31367 12.2459C3.61636 11.2857 3.20539 10.1056 3.20539 8.82652H1.20539C1.20539 10.5417 1.75829 12.1307 2.69536 13.4211L4.31367 12.2459ZM2.90323 16.4291L4.40774 13.2627L2.60129 12.4043L1.09677 15.5708L2.90323 16.4291ZM4.81182 13.5921L1.57893 15.0929L2.42107 16.907L5.65397 15.4062L4.81182 13.5921ZM9.03191 14.653C7.83034 14.653 6.71649 14.2904 5.79011 13.6688L4.67568 15.3295C5.92134 16.1654 7.42119 16.653 9.03191 16.653V14.653Z" fill="#2C343F" mask="url(#path-1-inside-1_929_21999)"/>
<circle cx="5.69922" cy="8.7998" r="1" fill="#2C343F"/>
<circle cx="9.11328" cy="8.7998" r="1" fill="#2C343F"/>
<circle cx="12.5273" cy="8.7998" r="1" fill="#2C343F"/>
</svg>
