<svg width="24" height="24" viewBox="0 0 24 24" fill="none" xmlns="http://www.w3.org/2000/svg">
<path d="M18.287 1.875H17.2062L15.5774 3.65398L14.2769 5.07432L10.3613 9.35096V10.6125H13.158V16.525C13.158 17.2401 13.2458 17.8964 13.413 18.4897C13.5436 18.9503 13.7226 19.3728 13.9465 19.7541C14.7544 19.3132 15.4814 18.7377 16.1005 18.058C16.1088 18.0488 16.1171 18.0389 16.1261 18.0297C16.9236 17.1451 17.5393 16.0856 17.9097 14.9126C17.9961 14.6397 18.0687 14.3612 18.1281 14.0769C18.2463 13.5085 18.3085 12.9188 18.3085 12.3143V6.4564V1.875H18.287Z" fill="#2C343F"/>
<path d="M13.1572 16.525V10.6126H10.3605V9.351L14.276 5.07437C13.0487 4.32593 11.6216 3.88721 10.091 3.88721C5.65646 3.88721 2.04362 7.49052 1.88122 11.9975H1.875V20.735H9.83112C9.91751 20.7379 10.0046 20.74 10.0917 20.74C10.1822 20.74 10.272 20.7386 10.3612 20.735H10.3957V20.7336C11.6762 20.6854 12.8801 20.3353 13.9464 19.7534C13.4336 18.8823 13.1572 17.7958 13.1572 16.525Z" fill="#6595F4"/>
<path d="M22.1247 10.6127V6.45654H18.3066V10.6127H18.4193H22.1247Z" fill="#6595F4"/>
<path d="M22.1246 17.4123H19.896C19.0184 17.4123 18.3073 16.683 18.3073 15.7828V12.3135C18.3073 15.5383 16.5395 18.3372 13.9453 19.7533C14.8354 21.2679 16.4435 22.1248 18.5892 22.1248H22.1246V17.4123Z" fill="#6595F4"/>
</svg>
