<svg width="1.75rem" height="1.75rem" viewBox="0 0 28 28" fill="none" xmlns="http://www.w3.org/2000/svg">
<path d="M7.8 4C7.05739 4 6.3452 4.295 5.8201 4.8201C5.295 5.3452 5 6.05739 5 6.8V23.6C5 24.3426 5.295 25.0548 5.8201 25.5799C6.3452 26.105 7.05739 26.4 7.8 26.4H19C19.7426 26.4 20.4548 26.105 20.9799 25.5799C21.505 25.0548 21.8 24.3426 21.8 23.6V6.8C21.8 6.05739 21.505 5.3452 20.9799 4.8201C20.4548 4.295 19.7426 4 19 4H14.8V13.1C14.8 13.23 14.7638 13.3574 14.6955 13.468C14.6271 13.5786 14.5293 13.668 14.413 13.7261C14.2968 13.7842 14.1666 13.8088 14.0371 13.7972C13.9077 13.7855 13.784 13.738 13.68 13.66L11.3 11.875L8.92 13.66C8.816 13.738 8.69234 13.7855 8.56286 13.7972C8.43339 13.8088 8.30322 13.7842 8.18695 13.7261C8.07068 13.668 7.97289 13.5786 7.90454 13.468C7.8362 13.3574 7.8 13.23 7.8 13.1V4ZM13.4 4H9.2V11.7L10.88 10.44C11.0012 10.3491 11.1485 10.3 11.3 10.3C11.4515 10.3 11.5988 10.3491 11.72 10.44L13.4 11.7V4Z" fill="white"/>
</svg>
