<svg width="1.5rem" height="1.5rem" viewBox="0 0 24 24" fill="none" xmlns="http://www.w3.org/2000/svg">
<path fill-rule="evenodd" clip-rule="evenodd" d="M18.8584 11.8265C18.8584 15.5967 15.8021 18.653 12.0319 18.653C10.6258 18.653 9.31892 18.2279 8.23289 17.4991L5 18.9999L6.50451 15.8335C5.68733 14.7082 5.20539 13.3236 5.20539 11.8265C5.20539 8.05634 8.26173 5 12.0319 5C15.8021 5 18.8584 8.05634 18.8584 11.8265ZM15.3545 10.3536L15.7081 10L15.001 9.29289L14.6474 9.64645L11.001 13.2929L9.35453 11.6464L9.00098 11.2929L8.29387 12L8.64742 12.3536L10.6474 14.3536L11.001 14.7071L11.3545 14.3536L15.3545 10.3536Z" fill="white"/>
</svg>
