<svg width="1.5rem" height="1.5rem" viewBox="0 0 24 24" fill="none" xmlns="http://www.w3.org/2000/svg">
<mask id="path-1-inside-1_929_22109" fill="white">
<path fill-rule="evenodd" clip-rule="evenodd" d="M12.0319 18.653C15.8021 18.653 18.8584 15.5967 18.8584 11.8265C18.8584 8.05634 15.8021 5 12.0319 5C8.26173 5 5.20539 8.05634 5.20539 11.8265C5.20539 13.3236 5.68733 14.7082 6.50451 15.8335L5 18.9999L8.23289 17.4991C9.31892 18.2279 10.6258 18.653 12.0319 18.653Z"/>
</mask>
<path d="M6.50451 15.8335L7.40774 16.2627L7.66256 15.7264L7.31367 15.2459L6.50451 15.8335ZM5 18.9999L4.09677 18.5708L2.90744 21.0739L5.42107 19.907L5 18.9999ZM8.23289 17.4991L8.79011 16.6688L8.32255 16.355L7.81182 16.5921L8.23289 17.4991ZM17.8584 11.8265C17.8584 15.0444 15.2498 17.653 12.0319 17.653V19.653C16.3544 19.653 19.8584 16.149 19.8584 11.8265H17.8584ZM12.0319 6C15.2498 6 17.8584 8.60862 17.8584 11.8265H19.8584C19.8584 7.50405 16.3544 4 12.0319 4V6ZM6.20539 11.8265C6.20539 8.60862 8.81402 6 12.0319 6V4C7.70945 4 4.20539 7.50405 4.20539 11.8265H6.20539ZM7.31367 15.2459C6.61636 14.2857 6.20539 13.1056 6.20539 11.8265H4.20539C4.20539 13.5417 4.75829 15.1307 5.69536 16.4211L7.31367 15.2459ZM5.90323 19.4291L7.40774 16.2627L5.60129 15.4043L4.09677 18.5708L5.90323 19.4291ZM7.81182 16.5921L4.57893 18.0929L5.42107 19.907L8.65397 18.4062L7.81182 16.5921ZM12.0319 17.653C10.8303 17.653 9.71649 17.2904 8.79011 16.6688L7.67568 18.3295C8.92134 19.1654 10.4212 19.653 12.0319 19.653V17.653Z" fill="#2C343F" mask="url(#path-1-inside-1_929_22109)"/>
<path d="M9 12L11 14L15 10" stroke="#2C343F" stroke-linecap="square"/>
</svg>
