<svg width="0.75rem" height="0.75rem" viewBox="0 0 12 12" fill="none" xmlns="http://www.w3.org/2000/svg">
<path fill-rule="evenodd" clip-rule="evenodd" d="M8.11637 3.72239L6.87844 5.86654C6.7292 6.12503 6.42059 6.23414 6.14838 6.14141C6.12026 6.29829 6.06495 6.45306 5.98066 6.59905L5.82217 6.87356C6.46468 7.13057 7.21514 6.88336 7.57126 6.26654L8.80919 4.12239C9.19987 3.44572 8.96802 2.58046 8.29135 2.18978C7.61467 1.7991 6.74941 2.03095 6.35873 2.70762L5.2793 4.57726C5.34164 4.6022 5.40297 4.63188 5.46282 4.66644C5.64738 4.77299 5.79885 4.91486 5.91363 5.07857L7.05155 3.10762C7.22132 2.81358 7.59731 2.71284 7.89135 2.8826C8.18539 3.05236 8.28613 3.42835 8.11637 3.72239Z" fill="black"/>
<path fill-rule="evenodd" clip-rule="evenodd" d="M3.88168 8.62526L5.1196 6.48112C5.26884 6.22262 5.57746 6.11351 5.84967 6.20625C5.87779 6.04936 5.9331 5.89459 6.01738 5.74861L6.17587 5.47409C5.53337 5.21709 4.78291 5.46429 4.42678 6.08112L3.18886 8.22526C2.79818 8.90194 3.03003 9.7672 3.7067 10.1579C4.38338 10.5486 5.24864 10.3167 5.63932 9.64003L6.71875 7.7704C6.65641 7.74546 6.59508 7.71578 6.53523 7.68122C6.35066 7.57466 6.19919 7.4328 6.08442 7.26909L4.9465 9.24003C4.77673 9.53408 4.40074 9.63482 4.1067 9.46506C3.81266 9.29529 3.71192 8.9193 3.88168 8.62526Z" fill="black"/>
</svg>
