<svg width="24" height="24" viewBox="0 0 24 24" fill="none" xmlns="http://www.w3.org/2000/svg">
<mask id="path-1-inside-1_2194_13004" fill="white">
<path fill-rule="evenodd" clip-rule="evenodd" d="M11.9691 18.653C8.19888 18.653 5.14254 15.5967 5.14254 11.8265C5.14254 8.05634 8.19888 5 11.9691 5C15.7392 5 18.7956 8.05634 18.7956 11.8265C18.7956 13.3236 18.3137 14.7082 17.4965 15.8335L19.001 18.9999L15.7681 17.4991C14.6821 18.2279 13.3752 18.653 11.9691 18.653Z"/>
</mask>
<path d="M17.4965 15.8335L16.5932 16.2627L16.3384 15.7264L16.6873 15.2459L17.4965 15.8335ZM19.001 18.9999L19.9042 18.5708L21.0935 21.0739L18.5799 19.907L19.001 18.9999ZM15.7681 17.4991L15.2109 16.6688L15.6784 16.355L16.1892 16.5921L15.7681 17.4991ZM6.14254 11.8265C6.14254 15.0444 8.75117 17.653 11.9691 17.653V19.653C7.6466 19.653 4.14254 16.149 4.14254 11.8265H6.14254ZM11.9691 6C8.75117 6 6.14254 8.60862 6.14254 11.8265H4.14254C4.14254 7.50405 7.6466 4 11.9691 4V6ZM17.7956 11.8265C17.7956 8.60862 15.187 6 11.9691 6V4C16.2915 4 19.7956 7.50405 19.7956 11.8265H17.7956ZM16.6873 15.2459C17.3846 14.2857 17.7956 13.1056 17.7956 11.8265H19.7956C19.7956 13.5417 19.2427 15.1307 18.3056 16.4211L16.6873 15.2459ZM18.0977 19.4291L16.5932 16.2627L18.3997 15.4043L19.9042 18.5708L18.0977 19.4291ZM16.1892 16.5921L19.422 18.0929L18.5799 19.907L15.347 18.4062L16.1892 16.5921ZM11.9691 17.653C13.1706 17.653 14.2845 17.2904 15.2109 16.6688L16.3253 18.3295C15.0796 19.1654 13.5798 19.653 11.9691 19.653V17.653Z" fill="#2C343F" mask="url(#path-1-inside-1_2194_13004)"/>
</svg>
