<svg width="20" height="20" viewBox="0 0 20 20" fill="none" xmlns="http://www.w3.org/2000/svg">
<path fill-rule="evenodd" clip-rule="evenodd" d="M0.5 3.26562C0.223858 3.26562 0 3.48948 0 3.76563V18.5003C0 19.3287 0.671573 20.0003 1.5 20.0003H18.5C19.3284 20.0003 20 19.3287 20 18.5003V3.76562C20 3.48948 19.7761 3.26562 19.5 3.26562H0.5ZM5.24294 7.48341C5.16798 7.21764 4.89176 7.06295 4.62599 7.13792C4.36022 7.21288 4.20553 7.4891 4.28049 7.75487L5.08635 10.612C5.14713 10.8275 5.34371 10.9763 5.56758 10.9763H14.432C14.6559 10.9763 14.8525 10.8275 14.9133 10.612L15.7191 7.75487C15.7941 7.4891 15.6394 7.21288 15.3736 7.13792C15.1079 7.06295 14.8316 7.21764 14.7567 7.48341L14.0536 9.97628H5.94606L5.24294 7.48341Z" fill="white"/>
<line x1="2.94922" y1="0.5" x2="16.6431" y2="0.5" stroke="white" stroke-linecap="round"/>
</svg>
