<svg width="24" height="24" viewBox="0 0 24 24" fill="none" xmlns="http://www.w3.org/2000/svg">
<path fill-rule="evenodd" clip-rule="evenodd" d="M2.5 5.26562C2.22386 5.26562 2 5.48948 2 5.76563V20.5003C2 21.3287 2.67157 22.0003 3.5 22.0003H20.5C21.3284 22.0003 22 21.3287 22 20.5003V5.76562C22 5.48948 21.7761 5.26562 21.5 5.26562H2.5ZM7.24294 9.48341C7.16798 9.21764 6.89176 9.06295 6.62599 9.13792C6.36022 9.21288 6.20553 9.4891 6.28049 9.75487L7.08635 12.612C7.14713 12.8275 7.34371 12.9763 7.56758 12.9763H16.432C16.6559 12.9763 16.8525 12.8275 16.9133 12.612L17.7191 9.75487C17.7941 9.4891 17.6394 9.21288 17.3736 9.13792C17.1079 9.06295 16.8316 9.21764 16.7567 9.48341L16.0536 11.9763H7.94606L7.24294 9.48341Z" fill="white"/>
<line x1="4.94922" y1="2.5" x2="18.6431" y2="2.5" stroke="white" stroke-linecap="round"/>
</svg>
