<svg width="62" height="22" viewBox="0 0 62 22" fill="none" xmlns="http://www.w3.org/2000/svg">
<path d="M18.455 14.5281H21.2621H24.178H26.985H31.1412V12.1443H24.9049V10.0806H22.2364V12.1443C19.4289 12.2537 16.7062 12.3066 16.0099 11.5631L14.5273 13.3421C15.5936 14.6761 16.7359 14.5281 18.455 14.5281Z" fill="#2C343F"/>
<path d="M28.895 9.29967H19.1899C18.3195 9.29967 17.4708 8.66545 17.4926 7.74693V1.18604H28.8079V3.28552H20.4302V4.16031H28.5903V6.21605H20.4302V6.58784C20.4302 6.95962 20.6478 7.15645 21.083 7.15645H28.895V9.29967Z" fill="#2C343F"/>
<path fill-rule="evenodd" clip-rule="evenodd" d="M1.14777 8.89411H7.70905V6.85776L7.65021 3.17986V1.18506H0.000276971V7.41879C-0.0144345 8.29151 0.559311 8.89411 1.14777 8.89411ZM2.42766 5.68201C2.42766 6.32443 2.56968 6.64564 3.21211 6.64564H5.46058V3.75474H2.42766V5.68201Z" fill="#2C343F"/>
<path d="M9.08008 3.73269H8.30273V6.26589H9.08008V3.73269Z" fill="#2C343F"/>
<path d="M11.0081 10.4229C11.191 9.44863 11.2076 9.08056 11.2076 7.84643V6.26589V0.593262H9.08008V3.73269V6.26589V7.91139C9.08008 8.1712 9.0967 8.66918 8.98035 9.44863L11.0081 10.4229Z" fill="#2C343F"/>
<path d="M12.1052 6.26589V7.91139C12.1052 8.86404 12.0221 9.64349 11.9722 10.0549L13.8338 11.2673C14.2493 10.2064 14.2327 8.45267 14.2327 7.78148V0.593262H12.1052V3.73269V6.26589Z" fill="#2C343F"/>
<path d="M37.258 3.50826H32.0215V1.18555H40.2035V6.88277H35.0106V7.36484C35.0106 7.78117 35.1416 8.0003 35.6434 8.0003H40.7708V10.3887H33.767C32.916 10.3887 32.0651 9.66564 32.0651 8.7015V4.60388H37.258V3.50826Z" fill="#6595F4"/>
<path d="M42.2771 6.33333V7.99867C42.2771 8.96282 42.168 9.75166 42.1025 10.168L44.5462 11.3951C45.0917 10.3214 45.0699 8.54648 45.0699 7.8672V0.592285H42.2771V3.76958V6.33333Z" fill="#6595F4"/>
<path d="M35.5614 17.7641L33.8382 16.041L38.6376 11.1649C38.6376 11.1649 39.6548 10.0151 40.8046 11.1649L45.7188 16.0791L44.0366 17.7613L39.8004 13.5251L35.5614 17.7641Z" fill="#6595F4"/>
<path d="M58.3088 9.13898V11.79C58.3088 13.3248 58.1872 14.5805 58.1143 15.2433L60.8376 17.1966C61.4455 15.4874 61.4212 12.662 61.4212 11.5807V0H58.3088V5.05783V9.13898Z" fill="#6595F4"/>
<path d="M48.3965 12.0552L46.6318 10.2904L50.7508 4.22952C50.7508 4.22952 51.821 3.01973 53.0308 4.22952C54.2406 5.43931 57.5342 10.0668 57.5342 10.0668L55.5489 12.0522L51.9742 6.71275L48.3965 12.0552Z" fill="#6595F4"/>
<path d="M51.8469 1.77881L50.2014 1.77881C49.2487 1.77881 47.2568 1.8344 46.8455 1.77881V4.15078C46.8455 4.15078 49.6601 4.15078 50.3313 4.15078L57.5195 4.15078V1.77881L54.3801 1.77881L51.8469 1.77881Z" fill="#6595F4"/>
<path d="M13.6389 13.3428V15.9688L4.91807 16.0106C4.91807 16.0106 2.96484 16.0827 2.96484 14.8323L2.96484 9.48828H5.92986V13.3428H13.6389Z" fill="#2C343F"/>
</svg>
