<svg width="14" height="12" viewBox="0 0 14 12" fill="none" xmlns="http://www.w3.org/2000/svg">
<path d="M11.75 5.4C11.75 2.55574 9.44427 0.25 6.6 0.25C3.75573 0.25 1.45 2.55573 1.45 5.4V10.55H11.75V5.4Z" fill="white" stroke="#6595F4" stroke-width="0.5"/>
<path d="M8.52141 2.64273C8.38752 2.609 8.30632 2.47312 8.34004 2.33923C8.37377 2.20535 8.50965 2.12415 8.64354 2.15787L8.52141 2.64273ZM10.2975 6.06144C10.2778 6.1981 10.151 6.29292 10.0144 6.27323C9.87771 6.25355 9.78289 6.1268 9.80257 5.99014L10.2975 6.06144ZM8.64354 2.15787C9.43478 2.35717 10.6735 3.45083 10.2975 6.06144L9.80257 5.99014C10.1507 3.57379 9.01027 2.76586 8.52141 2.64273L8.64354 2.15787Z" fill="#6595F4"/>
<rect x="-0.25" y="0.25" width="12.7" height="1.9" rx="0.45" transform="matrix(-1 0 0 1 12.7002 9.59961)" fill="white" stroke="#6595F4" stroke-width="0.5"/>
</svg>
