<svg width="1.5rem" height="1.5rem" viewBox="0 0 24 24" fill="none" xmlns="http://www.w3.org/2000/svg">
<path fill-rule="evenodd" clip-rule="evenodd" d="M21.7971 11.752C21.7971 17.1378 17.431 21.5039 12.0451 21.5039C10.0365 21.5039 8.1697 20.8966 6.61832 19.8557L2 21.9997L4.14921 17.4764C2.9817 15.8688 2.29316 13.8908 2.29316 11.752C2.29316 6.3661 6.65926 2 12.0451 2C17.431 2 21.7971 6.3661 21.7971 11.752ZM7.2002 13C7.75248 13 8.2002 12.5523 8.2002 12C8.2002 11.4477 7.75248 11 7.2002 11C6.64791 11 6.2002 11.4477 6.2002 12C6.2002 12.5523 6.64791 13 7.2002 13ZM13.0762 12C13.0762 12.5523 12.6285 13 12.0762 13C11.5239 13 11.0762 12.5523 11.0762 12C11.0762 11.4477 11.5239 11 12.0762 11C12.6285 11 13.0762 11.4477 13.0762 12ZM16.9521 13C17.5044 13 17.9521 12.5523 17.9521 12C17.9521 11.4477 17.5044 11 16.9521 11C16.3999 11 15.9521 11.4477 15.9521 12C15.9521 12.5523 16.3999 13 16.9521 13Z" fill="#6595F4"/>
</svg>
