<svg width="20" height="20" viewBox="0 0 20 20" fill="none" xmlns="http://www.w3.org/2000/svg">
<path fill-rule="evenodd" clip-rule="evenodd" d="M10 20C15.5228 20 20 15.5228 20 10C20 4.47715 15.5228 0 10 0C4.47715 0 0 4.47715 0 10C0 15.5228 4.47715 20 10 20ZM6 11.3437C5.25 10.5 4.9959 9.6979 5.00005 8.86311C5.0042 8.06893 5.28208 7.34243 5.78807 6.81899C7.10788 5.45457 8.8452 5.94451 10.0226 7.19352C11.2001 5.94451 12.8921 5.45457 14.2119 6.81899C14.7179 7.34243 14.9958 8.06893 14.9999 8.86311C15.0041 9.6979 14.75 10.5 14 11.3437L12 13.3125L9.97736 15L8 13.3125L6 11.3437Z" fill="white"/>
</svg>
